<?xml version="1.0" ?><!DOCTYPE svg  PUBLIC '-//W3C//DTD SVG 1.1//EN'  'http://www.w3.org/Graphics/SVG/1.1/DTD/svg11.dtd'><svg enable-background="new 0 0 48 48" height="48px" version="1.1" viewBox="0 0 48 48" width="48px" xml:space="preserve" xmlns="http://www.w3.org/2000/svg" xmlns:xlink="http://www.w3.org/1999/xlink"><g id="Layer_4"><path d="M38.646,18.486L37.61,12.37v-0.165l-0.114-0.765l-0.218-1.106h-6.665v2.541h5.057l0.383,2.257h-3.903   l-8.012,10.607l-5.257-8.064h2.52v-3.199h-7.996v3.199h0.878h0.267l-0.965,1.721c-0.45-0.212-0.859-0.369-1.195-0.48l0.007-0.013   c-0.056-0.017-0.118-0.024-0.177-0.04c-0.457-0.142-0.745-0.195-0.745-0.195l-0.015,0.018c-0.602-0.123-1.214-0.211-1.852-0.211   c-5.301,0-9.597,4.295-9.597,9.597c0,5.301,4.296,9.596,9.597,9.596c5.014,0,9.122-3.848,9.552-8.752l4.911-0.006l8.486-11.234   h3.927l0.16,0.966c-4.459,0.823-7.845,4.729-7.845,9.43c0,5.301,4.297,9.596,9.598,9.596c5.299,0,9.597-4.295,9.597-9.596   C47.991,22.854,43.826,18.619,38.646,18.486z M16.837,17.958l0,0.003l1.241,1.884l4.564,7.001h-2.278v-0.004h-1.248   c-0.089-0.695-0.265-1.355-0.501-1.989c-0.006-0.019-0.008-0.032-0.015-0.052c-0.582-1.79-1.421-2.68-1.421-2.68   s-0.007,0.004-0.008,0.005c-0.538-0.678-1.204-1.245-1.75-1.639L16.837,17.958z M13.245,24.375l0.944-1.687   c0.57,0.462,1.125,1.042,1.588,1.763c0.193,0.32,0.341,0.665,0.474,1.016c0.073,0.234,0.212,0.738,0.313,1.375h-4.701l0.048-0.088   l0.312-0.559L13.245,24.375z M16.552,29.66c-0.201,0.883-0.567,1.697-1.048,2.428c-0.044,0.078-0.078,0.152-0.141,0.24   c-0.057,0.078-0.118,0.15-0.177,0.225c-0.038,0.049-0.074,0.098-0.113,0.145c-0.172,0.205-0.351,0.393-0.534,0.566   c-0.057,0.055-0.104,0.119-0.163,0.172l-0.008-0.014c-0.602,0.531-1.235,0.904-1.798,1.164l0.003,0.006   c-0.032,0.016-0.067,0.025-0.099,0.041c-0.17,0.076-0.33,0.139-0.481,0.195c-0.06,0.021-0.118,0.043-0.178,0.062   c-0.565,0.193-0.945,0.252-0.945,0.252l-0.004-0.01c-0.409,0.08-0.827,0.131-1.26,0.131c-0.25,0-0.491-0.033-0.734-0.061   c-0.084-0.006-0.151,0.006-0.243-0.008c-0.032-0.004-0.061-0.016-0.093-0.02c-0.127-0.02-0.25-0.051-0.375-0.078   c-0.176-0.037-0.35-0.076-0.514-0.125c-0.098-0.027-0.201-0.041-0.296-0.072l0.012-0.023c-0.802-0.277-1.459-0.648-1.912-0.961   l-0.009,0.018c-0.048-0.035-0.088-0.08-0.135-0.117c-0.354-0.254-0.559-0.445-0.559-0.445l-0.045-0.072   c-1.037-0.973-1.801-2.227-2.119-3.664c0,0-0.001,0-0.001-0.002c-0.302-0.918-0.157-2.17-0.035-2.879H2.532   c0.01-0.055,0.033-0.105,0.044-0.16c0.045-0.24,0.081-0.391,0.081-0.391l0.024,0.006c0.366-1.358,1.098-2.564,2.112-3.481   l-0.001-0.01c0,0,0.083-0.075,0.209-0.181c0.007-0.005,0.014-0.011,0.021-0.017c0.111-0.091,0.255-0.202,0.445-0.333   c0.038-0.027,0.073-0.058,0.112-0.084l0.004,0.008c0.47-0.314,1.13-0.673,1.933-0.922l-0.003-0.006   c0.026-0.008,0.055-0.011,0.082-0.019c0.249-0.073,0.509-0.131,0.782-0.176c0.079-0.014,0.157-0.03,0.236-0.042   c0.037-0.005,0.069-0.015,0.106-0.019c0.142-0.015,0.267-0.021,0.379-0.018c0.169-0.012,0.334-0.038,0.507-0.038   c0.443,0,0.867,0.061,1.284,0.144c0.249,0.063,0.805,0.226,1.482,0.541l-1.431,2.555l-2.677,4.782l-0.02,0.035h2.451l0-0.002   l5.961-0.008C16.637,29.164,16.604,29.414,16.552,29.66z M45.563,28.65c-0.02,0.219-0.047,0.436-0.085,0.646l-0.015-0.006   c-0.103,0.533-0.303,1.301-0.662,2.035h0.004c-0.005,0.012-0.014,0.021-0.019,0.031c-0.124,0.248-0.26,0.492-0.422,0.719   c-0.034,0.049-0.069,0.082-0.104,0.123c-0.472,0.67-1.061,1.248-1.724,1.725c-0.098,0.08-0.207,0.162-0.33,0.242   c-0.019,0.014-0.038,0.021-0.057,0.033c-0.056,0.035-0.115,0.062-0.173,0.096c-0.244,0.146-0.487,0.271-0.731,0.379   c-0.011,0.004-0.019,0.01-0.028,0.014v-0.002c-0.768,0.324-1.504,0.473-2.083,0.533l0.001,0.008   c-0.05,0.006-0.104,0.004-0.155,0.008c-0.571,0.047-0.951,0.02-0.951,0.02l-0.007-0.016c-1.107-0.057-2.147-0.355-3.064-0.859   c-0.014-0.008-0.023-0.008-0.037-0.016c-0.294-0.146-0.562-0.332-0.816-0.527c-0.007-0.006-0.015-0.008-0.022-0.014l0.003-0.002   c-0.555-0.43-0.992-0.922-1.331-1.355c-0.237-0.336-0.809-1.188-1.118-1.969c-0.277-0.758-0.439-1.57-0.439-2.426   c0-0.066,0.014-0.131,0.016-0.197c-0.001-0.135,0.004-0.277,0.021-0.443c0.005-0.045,0.016-0.088,0.021-0.135   c0.015-0.111,0.033-0.221,0.054-0.33c0.031-0.186,0.065-0.365,0.107-0.539c0.007-0.025,0.01-0.053,0.017-0.08l0.005,0.002   c0.218-0.836,0.539-1.513,0.812-1.978l-0.014-0.006c0.044-0.074,0.097-0.142,0.144-0.214c0.111-0.175,0.203-0.308,0.265-0.39   c0.002-0.003,0.005-0.006,0.007-0.009c0.047-0.062,0.079-0.103,0.079-0.103l0.005,0.001c1.032-1.314,2.505-2.262,4.2-2.612   L37.396,24l0.235,1.517l0.142,0.906l0.065,0.426l-0.013,0.002l0.308,2.041h2.205l-0.356-2.367l-0.014,0.002l-0.302-1.982v-0.001   l-0.301-1.786l-0.28-1.814c1.021,0.099,1.963,0.435,2.81,0.919c0.364,0.242,1.498,1.035,2.24,1.984   c0.184,0.248,0.358,0.527,0.526,0.822c0.147,0.293,0.53,1.114,0.77,2.032c0.093,0.443,0.159,0.896,0.159,1.369   c0,0.182-0.011,0.361-0.025,0.541h0.002C45.567,28.611,45.564,28.639,45.563,28.65z" fill="#241F20"/></g></svg>