<?xml version="1.0" ?><svg id="social_x5F_aim" style="enable-background:new 0 0 23 32;" version="1.1" viewBox="0 0 23 32" xml:space="preserve" xmlns="http://www.w3.org/2000/svg" xmlns:xlink="http://www.w3.org/1999/xlink"><g><g><path d="M15.5,2C16.878,2,18,3.121,18,4.5S16.878,7,15.5,7S13,5.879,13,4.5S14.122,2,15.5,2 M15.5,0    C13.019,0,11,2.019,11,4.5S13.019,9,15.5,9S20,6.981,20,4.5S17.981,0,15.5,0L15.5,0z" style="fill:#000;"/></g><g><path d="M10.173,10.946c1.645,1.354,3.875,2.144,6.119,2.144c1.02,0,2.01-0.167,2.936-0.49l1.027,1.713    c-1.666,0.852-2.888,0.961-4.755,0.961c-0.736,0-1.423-0.074-2.04-0.22l-2.433-0.575L11,16.979    c-0.001,0.086,0.002,0.157,0.007,0.23l-0.013,1.312l1.26,0.513c4.684,1.906,7.907,6.088,8.604,10.967h-2.023    c-0.568-3.396-2.572-6.387-5.6-8.237l-2.079-1.27l-0.841,2.286C8.961,26.458,5.753,29.109,2,29.813v-2.037    C6.003,26.864,9,23.275,9,19v-2.004l0.026-0.939C9.09,13.723,9.398,12.228,10.173,10.946 M10.016,7.969L10.016,7.969L10.016,7.969    L10.016,7.969z M10.016,7.969c-2.285,2.285-2.892,4.516-2.989,8.032C7.018,16.001,7.009,16,7,16v3c0,3.859-3.141,7-7,7v6    c5.596,0,10.363-3.561,12.192-8.53C15.069,25.228,17,28.389,17,32h6c0-6.697-4.14-12.438-9.992-14.819    C13.008,17.109,12.999,17.069,13,17c0.819,0.193,1.663,0.273,2.5,0.273C18.26,17.273,20,17,23,15l-3-5    c-1.146,0.764-2.438,1.09-3.708,1.09c-2.056,0-4.056-0.854-5.292-2.09C10.007,8.008,10.015,7.97,10.016,7.969L10.016,7.969z" style="fill:#000;"/></g></g></svg>